<svg width="164" height="50" fill="none" xmlns="http://www.w3.org/2000/svg"><path d="M163 44.307C163 46.9 160.9 49 158.3 49H5.705A4.698 4.698 0 0 1 1 44.307V5.697A4.704 4.704 0 0 1 5.705 1h152.592a4.698 4.698 0 0 1 4.702 4.697l.001 38.61Z" stroke="#222" stroke-width="1.225" stroke-miterlimit="10"/><path d="M37.8 24.147c-.034-3.866 3.167-5.75 3.314-5.837-1.814-2.643-4.624-3.005-5.612-3.033-2.36-.249-4.65 1.412-5.852 1.412-1.226 0-3.078-1.389-5.074-1.348-2.568.04-4.97 1.527-6.288 3.836-2.719 4.706-.69 11.625 1.914 15.43 1.304 1.864 2.826 3.945 4.82 3.871 1.95-.08 2.678-1.243 5.031-1.243 2.332 0 3.016 1.243 5.049 1.197 2.092-.034 3.41-1.872 4.668-3.753 1.506-2.136 2.11-4.24 2.134-4.347-.049-.016-4.064-1.548-4.104-6.185Zm-3.84-11.373c1.05-1.311 1.767-3.096 1.568-4.906-1.518.067-3.417 1.05-4.51 2.332-.967 1.13-1.831 2.984-1.608 4.726 1.705.126 3.456-.86 4.55-2.152Zm32.062 25.438h-2.725l-1.493-4.691h-5.189l-1.422 4.69H52.54l5.14-15.969h3.176l5.166 15.97Zm-4.67-6.659-1.35-4.17c-.142-.426-.41-1.43-.804-3.01h-.048c-.158.68-.41 1.683-.759 3.01l-1.326 4.17h4.288Zm17.888.76c0 1.958-.527 3.506-1.587 4.643-.947 1.011-2.124 1.516-3.529 1.516-1.517 0-2.606-.544-3.27-1.634h-.047v6.066h-2.56V30.488c0-1.232-.032-2.495-.094-3.791h2.251l.142 1.825h.048c.853-1.375 2.146-2.062 3.884-2.062 1.358 0 2.492.537 3.4 1.61.91 1.076 1.363 2.49 1.363 4.243Zm-2.606.093c0-1.12-.252-2.044-.758-2.772-.553-.758-1.296-1.137-2.226-1.137-.632 0-1.205.211-1.718.628-.514.42-.85.968-1.008 1.647a3.404 3.404 0 0 0-.118.78v1.92c0 .838.256 1.544.77 2.122.513.577 1.18.865 2.002.865.964 0 1.715-.372 2.251-1.114.538-.742.805-1.722.805-2.938Zm15.852-.093c0 1.958-.53 3.506-1.59 4.642-.946 1.012-2.123 1.517-3.528 1.517-1.517 0-2.607-.545-3.27-1.634h-.046v6.066h-2.56V30.487c0-1.23-.032-2.494-.095-3.79h2.252l.141 1.825h.048c.852-1.375 2.146-2.062 3.885-2.062 1.357 0 2.49.537 3.4 1.61.908 1.076 1.362 2.49 1.362 4.243Zm-2.607.093c0-1.12-.253-2.045-.76-2.772-.553-.758-1.293-1.137-2.225-1.137-.633 0-1.205.21-1.719.627-.513.42-.847.969-1.007 1.648a3.471 3.471 0 0 0-.117.78v1.92c0 .837.255 1.544.768 2.121.513.576 1.18.866 2.004.866.963 0 1.713-.372 2.25-1.114.537-.743.806-1.722.806-2.939Zm17.414 1.327c0 1.359-.471 2.464-1.418 3.317-1.04.933-2.489 1.398-4.35 1.398-1.718 0-3.096-.33-4.139-.995l.593-2.132a7.014 7.014 0 0 0 3.698 1.02c.964 0 1.714-.218 2.253-.653.536-.434.804-1.017.804-1.745 0-.648-.221-1.194-.664-1.636-.44-.443-1.176-.855-2.203-1.235-2.796-1.043-4.193-2.57-4.193-4.58 0-1.312.49-2.387 1.47-3.226.977-.839 2.28-1.258 3.91-1.258 1.453 0 2.66.252 3.624.759l-.64 2.084c-.9-.488-1.917-.734-3.056-.734-.9 0-1.603.222-2.107.663-.426.396-.64.876-.64 1.446 0 .632.244 1.154.733 1.564.426.38 1.2.79 2.323 1.232 1.374.554 2.384 1.2 3.033 1.942.647.74.969 1.664.969 2.77Zm8.46-5.116h-2.82v5.59c0 1.422.496 2.133 1.492 2.133.458 0 .837-.04 1.137-.119l.071 1.943c-.504.188-1.168.283-1.99.283-1.01 0-1.8-.308-2.37-.924-.568-.617-.853-1.651-.853-3.104v-5.805h-1.68v-1.92h1.68v-2.11l2.513-.757v2.867h2.82v1.923Zm12.723 3.743c0 1.77-.506 3.223-1.517 4.359-1.059 1.17-2.466 1.753-4.219 1.753-1.69 0-3.035-.56-4.038-1.681-1.003-1.12-1.505-2.536-1.505-4.24 0-1.785.516-3.247 1.552-4.383 1.033-1.138 2.427-1.707 4.181-1.707 1.689 0 3.049.56 4.075 1.683.981 1.088 1.471 2.493 1.471 4.215Zm-2.654.082c0-1.062-.227-1.973-.687-2.732-.536-.92-1.303-1.378-2.297-1.378-1.028 0-1.809.46-2.346 1.378-.459.76-.686 1.686-.686 2.78 0 1.062.227 1.973.686 2.731.554.92 1.326 1.378 2.324 1.378.976 0 1.743-.468 2.296-1.402.472-.774.71-1.694.71-2.755Zm10.97-3.495a4.438 4.438 0 0 0-.806-.071c-.9 0-1.596.34-2.086 1.02-.426.6-.639 1.358-.639 2.274v6.042h-2.558l.024-7.889c0-1.327-.032-2.536-.096-3.625h2.229l.093 2.203h.071c.27-.757.696-1.367 1.279-1.824.57-.412 1.186-.617 1.85-.617.236 0 .45.017.639.047v2.44Zm11.442 2.963c0 .458-.03.844-.094 1.16h-7.675c.03 1.138.401 2.008 1.114 2.608.647.536 1.483.805 2.51.805 1.137 0 2.173-.181 3.106-.545l.401 1.776c-1.09.475-2.376.712-3.861.712-1.785 0-3.187-.526-4.207-1.576C138.51 35.8 138 34.39 138 32.62c0-1.736.474-3.182 1.424-4.336.993-1.23 2.336-1.846 4.026-1.846 1.659 0 2.916.615 3.769 1.846.675.979 1.015 2.188 1.015 3.625Zm-2.44-.664c.017-.758-.15-1.414-.496-1.967-.443-.712-1.124-1.067-2.039-1.067-.837 0-1.517.347-2.037 1.043-.426.553-.679 1.217-.757 1.99h5.329ZM53.756 9.135c.272-.163.58-.3.925-.413a3.92 3.92 0 0 1 1.217-.17c.752 0 1.345.18 1.78.536.434.356.65.838.65 1.444 0 .48-.144.884-.435 1.21-.29.327-.662.544-1.112.652v.035c.248.04.483.107.704.204.222.097.417.227.582.39a1.765 1.765 0 0 1 .541 1.294c0 .434-.087.799-.262 1.094a2.196 2.196 0 0 1-.687.722c-.282.186-.599.32-.948.4a4.62 4.62 0 0 1-1.047.123 5.41 5.41 0 0 1-1.107-.116 3.436 3.436 0 0 1-1.013-.384l.315-.966c.201.1.462.198.78.292.318.093.64.139.966.139.535 0 .949-.12 1.24-.36.29-.241.436-.563.436-.966 0-.273-.059-.495-.175-.67a1.277 1.277 0 0 0-.455-.414 1.899 1.899 0 0 0-.619-.211 4.115 4.115 0 0 0-.68-.059h-.525v-.954h.525c.24 0 .463-.03.67-.094a1.7 1.7 0 0 0 .534-.261c.152-.113.27-.247.356-.402.084-.155.127-.33.127-.524 0-.35-.125-.623-.373-.821-.249-.198-.582-.298-1.001-.298a2.8 2.8 0 0 0-.862.14 6.36 6.36 0 0 0-.769.302l-.278-.894Zm9.997 7.392-.093-.652h-.034c-.38.52-.93.78-1.653.78-.256 0-.488-.043-.698-.128a1.722 1.722 0 0 1-.547-.35 1.541 1.541 0 0 1-.361-.524 1.69 1.69 0 0 1-.128-.664c0-.705.287-1.236.862-1.588.575-.353 1.388-.53 2.444-.53v-.104c0-.745-.39-1.117-1.173-1.117-.558 0-1.05.14-1.475.419l-.256-.826c.52-.325 1.167-.488 1.94-.488 1.48 0 2.22.78 2.22 2.34v2.083c0 .582.028 1.032.082 1.35h-1.13v-.001Zm-.174-2.817c-.702 0-1.225.089-1.569.268-.343.179-.514.47-.514.873 0 .296.08.516.242.664.162.148.367.22.614.22a1.26 1.26 0 0 0 .85-.326c.113-.1.203-.223.274-.367a1.04 1.04 0 0 0 .103-.46v-.872Zm7.287-2.84v1.036h-2.35v4.62h-1.257V10.87h3.607Zm7.193 2.757c0 .45-.062.862-.185 1.234a2.89 2.89 0 0 1-.519.954 2.33 2.33 0 0 1-.792.617 2.33 2.33 0 0 1-1.017.222c-.745 0-1.282-.268-1.608-.803h-.024v2.98h-1.257v-6.099a39.062 39.062 0 0 0-.045-1.862h1.106l.071.896h.024c.418-.674 1.055-1.013 1.908-1.013.332 0 .642.07.925.21.283.14.53.335.738.587.211.252.375.555.495.909.12.352.18.742.18 1.168Zm-1.28.047c0-.28-.033-.537-.1-.774a1.794 1.794 0 0 0-.29-.605 1.423 1.423 0 0 0-.466-.396 1.28 1.28 0 0 0-.612-.145c-.178 0-.352.04-.524.117a1.41 1.41 0 0 0-.447.314 1.543 1.543 0 0 0-.427 1.072v.943c0 .209.032.403.1.582.066.179.158.333.279.465.12.132.263.236.43.309.167.074.35.11.551.11.474 0 .844-.18 1.107-.541.267-.362.398-.845.398-1.45Zm8.034-2.804-1.433 3.923c-.34.93-.673 1.693-.994 2.287-.324.594-.63 1.026-.925 1.298-.433.388-.895.625-1.385.71l-.302-1.059a2.38 2.38 0 0 0 .93-.5c.295-.249.532-.558.71-.931.064-.124.094-.21.094-.256 0-.047-.024-.136-.07-.268l-2.05-5.203h1.385l1.072 3.155c.054.148.108.314.162.5.056.186.113.393.175.617h.024c.037-.125.082-.28.126-.472.047-.19.11-.409.188-.657l.954-3.143h1.339v-.001Zm2.177 2.35h.58c.427 0 .758-.076.99-.232.231-.156.349-.346.349-.571a.648.648 0 0 0-.298-.558c-.197-.14-.471-.21-.82-.21-.226 0-.453.037-.68.11a3.65 3.65 0 0 0-.635.274l-.325-.815c.326-.178.65-.3.974-.366.321-.066.644-.1.97-.1.258 0 .516.026.776.076.258.05.49.136.69.256.202.12.37.277.495.471.129.195.192.435.192.723a1 1 0 0 1-.106.471 1.22 1.22 0 0 1-.278.36 1.49 1.49 0 0 1-.389.256c-.142.066-.29.115-.435.146v.035c.184.024.366.07.54.14.175.07.33.161.472.274.138.113.251.248.338.407.084.16.126.34.126.541 0 .334-.08.613-.244.838a1.75 1.75 0 0 1-.624.535c-.25.132-.53.227-.831.285a4.726 4.726 0 0 1-1.92-.022 3.252 3.252 0 0 1-.92-.344l.327-.826c.201.109.43.2.69.273.261.073.526.11.798.11.426 0 .754-.082.984-.249.227-.167.342-.374.342-.623 0-.163-.037-.3-.115-.413a.852.852 0 0 0-.326-.273 1.595 1.595 0 0 0-.49-.145 4.133 4.133 0 0 0-.604-.041h-.593v-.792Zm6.715-2.35v2.001c0 .459-.007.87-.024 1.234-.017.365-.035.749-.06 1.152l.025.023c.147-.295.293-.583.436-.868.145-.283.29-.572.438-.867l1.396-2.678h1.629v5.657h-1.188v-2.001c0-.42.012-.838.03-1.257.019-.42.04-.842.063-1.27h-.059a8.34 8.34 0 0 1-.395.909c-.131.256-.263.52-.394.792-.241.466-.48.931-.718 1.397-.236.465-.487.943-.75 1.431h-1.628V10.87h1.199Zm10.475 0v1.036h-1.723v4.62h-1.234v-4.62h-1.71V10.87h4.667Zm6.413 2.56c0 .109-.005.212-.012.31a1.994 1.994 0 0 1-.035.26h-3.771c.016.536.184.95.506 1.24.322.29.748.437 1.274.437.551 0 1.06-.089 1.526-.268l.196.874c-.536.233-1.167.35-1.898.35-.44 0-.836-.07-1.186-.205a2.45 2.45 0 0 1-.885-.576 2.535 2.535 0 0 1-.553-.896c-.126-.35-.19-.74-.19-1.175 0-.434.064-.836.19-1.205a2.95 2.95 0 0 1 .541-.96 2.54 2.54 0 0 1 .843-.64c.33-.155.699-.233 1.102-.233a2.4 2.4 0 0 1 .973.192c.291.127.539.31.743.547.206.236.364.52.472.85.11.328.164.694.164 1.099Zm-1.2-.326c0-.442-.106-.801-.319-1.076-.214-.275-.523-.413-.925-.413-.366 0-.675.14-.93.419-.256.28-.404.636-.443 1.071h2.617Zm6.266-2.187a8.9 8.9 0 0 1 .86-.094 15.63 15.63 0 0 1 1.072-.035c.231 0 .494.015.784.041.291.026.57.089.832.186.265.097.485.242.664.437.178.194.27.457.27.79a1.102 1.102 0 0 1-.345.815 1.37 1.37 0 0 1-.361.25 1.764 1.764 0 0 1-.425.145l.012.035c.411.07.745.217 1.001.443.256.226.384.535.384.931s-.11.71-.325.943a2.047 2.047 0 0 1-.804.525 3.93 3.93 0 0 1-1.008.222c-.352.03-.669.047-.947.047-.312 0-.617-.008-.914-.024a35.89 35.89 0 0 1-.75-.047v-5.61Zm1.209 2.258h.64c.194 0 .379-.013.553-.04.175-.027.328-.07.46-.128a.772.772 0 0 0 .309-.233.574.574 0 0 0 .111-.355.6.6 0 0 0-.322-.564c-.214-.12-.548-.18-1.006-.18-.13 0-.246.004-.344.012-.096.007-.229.02-.401.035v1.453Zm0 2.502c.155.016.286.027.389.035a4.717 4.717 0 0 0 .892-.023c.177-.023.342-.067.489-.133a.9.9 0 0 0 .354-.266.695.695 0 0 0 .136-.446c0-.324-.145-.547-.431-.67-.288-.124-.674-.185-1.165-.185h-.664v1.688Z" fill="#222"/></svg>