<svg width="164" height="50" fill="none" xmlns="http://www.w3.org/2000/svg"><path d="M162.8 44.307c0 2.594-2.1 4.693-4.701 4.693H5.505A4.699 4.699 0 0 1 .8 44.307V5.697A4.705 4.705 0 0 1 5.505 1h152.592a4.698 4.698 0 0 1 4.702 4.697l.001 38.61Z" stroke="#222" stroke-width="1.225" stroke-miterlimit="10"/><path d="M121.433 32.263a4.207 4.207 0 0 1-1.738-.35 3.3 3.3 0 0 1-1.32-1.078h-.107c.073.568.107 1.108.107 1.618v4.006h-1.474V22.353h1.198l.204 1.332h.072c.379-.533.821-.92 1.325-1.156.501-.238 1.08-.356 1.733-.356 1.288 0 2.286.442 2.986 1.324.704.881 1.054 2.12 1.054 3.712 0 1.6-.358 2.842-1.07 3.727-.714.886-1.703 1.327-2.97 1.327Zm-.213-8.838c-.997 0-1.717.275-2.16.826-.443.55-.672 1.427-.684 2.63v.326c0 1.37.227 2.347.684 2.937.457.588 1.188.882 2.193.882.841 0 1.502-.34 1.978-1.02.476-.681.713-1.621.713-2.817 0-1.214-.236-2.145-.713-2.794-.476-.644-1.148-.97-2.011-.97Zm7.665 8.66h-1.471V18.267h1.471v13.818Zm8.48 0-.294-1.384h-.073c-.485.61-.969 1.024-1.451 1.237-.482.219-1.086.326-1.806.326-.968 0-1.724-.249-2.273-.746-.547-.498-.821-1.203-.821-2.123 0-1.965 1.574-2.996 4.716-3.09l1.653-.055v-.602c0-.764-.165-1.328-.492-1.693-.329-.364-.856-.546-1.576-.546-.811 0-1.728.248-2.755.745l-.452-1.127a6.935 6.935 0 0 1 1.575-.613 6.86 6.86 0 0 1 1.721-.222c1.16 0 2.02.257 2.579.773.56.515.84 1.34.84 2.478v6.642h-1.091Zm-3.331-1.038c.917 0 1.637-.251 2.161-.754.524-.504.786-1.21.786-2.114v-.88l-1.474.061c-1.174.044-2.018.224-2.536.547-.519.325-.778.825-.778 1.506 0 .533.162.938.485 1.218.323.278.773.416 1.356.416Zm5.278-8.695h1.581l2.131 5.55c.467 1.269.757 2.183.872 2.745h.071c.077-.302.239-.819.484-1.55.246-.733 1.049-2.979 2.412-6.745h1.58l-4.183 11.084c-.415 1.094-.899 1.873-1.453 2.331-.553.46-1.234.69-2.039.69a6.01 6.01 0 0 1-1.331-.152v-1.18c.324.07.69.105 1.092.105 1.013 0 1.733-.567 2.166-1.705l.544-1.385-3.927-9.788Zm-45.193.903c.468.388 1.445 1.201 1.445 2.75 0 1.505-.856 2.22-1.71 2.891-.266.264-.573.551-.573.999 0 .446.307.69.53.874l.734.57c.897.753 1.709 1.445 1.709 2.852 0 1.914-1.852 3.847-5.354 3.847-2.952 0-4.376-1.405-4.376-2.911 0-.734.365-1.773 1.566-2.486 1.262-.774 2.974-.874 3.89-.937-.287-.365-.613-.752-.613-1.38 0-.347.103-.55.205-.795-.225.02-.448.038-.653.038-2.157 0-3.377-1.607-3.377-3.194 0-.936.427-1.976 1.3-2.73 1.164-.956 2.547-1.119 3.647-1.119h4.193l-1.303.731h-1.26Zm-1.446 9.043c-.162-.023-.266-.023-.467-.023-.184 0-1.285.04-2.139.328-.447.162-1.751.65-1.751 2.095 0 1.445 1.406 2.485 3.583 2.485 1.954 0 2.994-.94 2.994-2.2 0-1.038-.674-1.587-2.22-2.685Zm.59-3.871c.467-.468.509-1.12.509-1.487 0-1.465-.876-3.745-2.566-3.745-.529 0-1.1.265-1.425.673-.346.427-.448.976-.448 1.505 0 1.367.793 3.625 2.545 3.625a2.092 2.092 0 0 0 1.385-.571Zm-11.964 3.545c-3.23 0-4.96-2.521-4.96-4.798 0-2.664 2.175-4.939 5.267-4.939 2.987 0 4.858 2.337 4.858 4.797 0 2.397-1.85 4.94-5.165 4.94Zm2.541-1.646c.489-.653.611-1.466.611-2.259 0-1.79-.854-5.204-3.374-5.204-.67 0-1.342.265-1.829.69-.793.712-.936 1.607-.936 2.482 0 2.01.996 5.324 3.457 5.324.791 0 1.605-.384 2.072-1.034Zm-13.56 1.646c-3.231 0-4.96-2.521-4.96-4.798 0-2.664 2.175-4.939 5.265-4.939 2.988 0 4.86 2.337 4.86 4.797 0 2.397-1.85 4.94-5.164 4.94Zm2.542-1.646c.49-.653.612-1.466.612-2.259 0-1.79-.854-5.204-3.374-5.204-.672 0-1.343.265-1.829.69-.793.712-.935 1.607-.935 2.482 0 2.01.995 5.324 3.456 5.324.79 0 1.603-.384 2.07-1.034Zm-9.054 1.327-2.923.674c-1.186.185-2.248.348-3.372.348-5.643 0-7.787-4.15-7.787-7.4 0-3.964 3.044-7.64 8.257-7.64 1.104 0 2.167.162 3.126.426 1.533.431 2.248.962 2.698 1.269l-1.697 1.614-.715.163.511-.818c-.694-.675-1.963-1.922-4.374-1.922-3.23 0-5.663 2.454-5.663 6.03 0 3.842 2.782 7.459 7.235 7.459 1.31 0 1.982-.266 2.597-.51v-3.292l-3.087.164 1.635-.878h4.333l-.53.511c-.146.124-.165.166-.206.326-.022.183-.04.777-.04.98v2.496h.002Z" fill="#222"/><path d="M100.576 31.065c-.674-.063-.814-.184-.814-.98v-11.57c.005-.044.007-.089.01-.13.084-.717.285-.837.921-1.208h-2.924l-1.533.736H97.8v.01l-.002-.008v12.618c0 .407-.08.47-.551 1.081h3.618l.757-.448c-.348-.042-.697-.063-1.046-.102Zm8.318.187c-.223.122-.445.264-.669.366-.671.303-1.36.385-1.971.385-.648 0-1.664-.042-2.7-.792-1.44-1.015-2.071-2.762-2.071-4.283 0-3.144 2.56-4.687 4.651-4.687.73 0 1.48.181 2.089.569 1.017.668 1.278 1.54 1.421 2.009l-4.769 1.927-1.563.123c.505 2.578 2.252 4.078 4.179 4.078 1.035 0 1.787-.366 2.476-.708l-1.073 1.013Zm-1.907-6.048c.384-.143.588-.265.588-.549 0-.81-.913-1.744-2.01-1.744-.814 0-2.332.628-2.332 2.82 0 .344.037.71.061 1.076l3.693-1.603Zm3.866-2.824v1.337h-.162V22.38h-.442v-.139h1.047v.14h-.443Zm1.826 1.338v-1.35h-.009l-.413 1.35h-.126l-.418-1.35h-.004v1.35h-.148V22.24h.253l.377 1.195h.005l.371-1.195h.258v1.477h-.146v.001ZM15.605 8.014 31.78 24.072l4.435-4.434-19.607-11.32a2.141 2.141 0 0 0-1.003-.304Zm-1.353.745a1.86 1.86 0 0 0-.234.912v31.205c0 .25.052.475.14.675l16.547-16.43L14.252 8.76Zm23.316 11.647-4.737 4.716 4.737 4.691 5.788-3.314c.824-.476.939-1.08.933-1.4-.007-.53-.345-1.027-.91-1.332-.494-.265-4.154-2.397-5.811-3.36Zm-5.79 5.766L15.466 42.346c.271-.014.566-.073.84-.233l13.561-7.842 6.37-3.663-4.457-4.436ZM50.094 9.011c.424-.253 1.058-.487 1.9-.487 1.338 0 2.124.67 2.124 1.565 0 .76-.516 1.267-1.221 1.437v.02c.76.1 1.429.623 1.429 1.447 0 1.357-1.375 1.826-2.515 1.826-.634 0-1.321-.136-1.827-.425l.29-1.058a3.6 3.6 0 0 0 1.474.362c.698 0 1.122-.289 1.122-.795 0-.678-.705-.815-1.274-.815h-.578v-1.014h.57c.624 0 1.094-.29 1.094-.77 0-.396-.335-.669-.923-.669-.47 0-.995.19-1.338.363l-.327-.987Zm6.54 4.144L56.2 14.72h-1.43l1.864-6.096h1.809l1.89 6.095H58.85l-.47-1.564h-1.746Zm1.547-1.031-.38-1.295c-.108-.362-.218-.815-.308-1.176h-.018c-.09.362-.18.824-.28 1.176l-.362 1.295h1.348Zm6.657-3.5v1.129H62.53v4.966h-1.383V8.625h3.69Zm.732.08c.425-.073 1.023-.126 1.864-.126.85 0 1.456.163 1.864.488.388.307.651.814.651 1.411 0 .597-.2 1.104-.56 1.448-.47.442-1.168.642-1.981.642a3.7 3.7 0 0 1-.47-.027v2.18H65.57V8.704Zm1.366 2.768c.117.027.263.036.46.036.734 0 1.186-.372 1.186-.994 0-.562-.388-.896-1.076-.896-.28 0-.47.027-.57.054v1.8Zm4.794-2.848.886 2.143c.163.433.29.795.425 1.167h.026c.082-.262.182-.67.335-1.185l.66-2.125h1.448l-1.14 2.957c-.371.95-.75 1.873-1.203 2.433-.398.497-.905.805-1.619.805-.317 0-.506-.036-.678-.1l.1-1.103c.108.026.253.045.452.045a.89.89 0 0 0 .824-.57c.053-.1.027-.181-.018-.28l-2.054-4.187h1.557Zm4.198.387c.424-.253 1.058-.487 1.9-.487 1.338 0 2.124.67 2.124 1.565 0 .76-.516 1.267-1.221 1.437v.02c.76.1 1.429.623 1.429 1.447 0 1.357-1.375 1.826-2.515 1.826-.634 0-1.321-.136-1.827-.425l.29-1.058a3.6 3.6 0 0 0 1.474.362c.698 0 1.122-.289 1.122-.795 0-.678-.705-.815-1.274-.815h-.578v-1.014h.57c.624 0 1.094-.29 1.094-.77 0-.396-.335-.669-.923-.669-.47 0-.995.19-1.338.363l-.327-.987Zm6.412-.387v1.808c0 .977-.018 1.945-.072 2.76h.036c.317-.715.725-1.52 1.085-2.172l1.313-2.396h1.41v6.095h-1.266v-1.8c0-.94.019-1.773.1-2.569h-.027a17.86 17.86 0 0 1-1.031 2.171L82.65 14.72h-1.575V8.625h1.265Zm6.15 1.156h-1.636V8.624h4.685v1.158h-1.665v4.938h-1.383V9.78Zm7.41 2.36h-2.244v1.448h2.506v1.13h-3.89V8.622h3.764v1.13h-2.38v1.268H95.9v1.12Zm4.414-3.516v2.342h2.271V8.624h1.375v6.095h-1.376v-2.55h-2.272v2.55h-1.383V8.625h1.385Zm6.268 4.531-.434 1.565h-1.429l1.864-6.096h1.809l1.89 6.095h-1.483l-.47-1.564h-1.747Zm1.546-1.031-.379-1.294c-.109-.362-.217-.815-.307-1.176h-.019c-.09.363-.18.825-.28 1.176l-.362 1.294h1.347Z" fill="#222"/></svg>