<svg width="40" height="40" fill="none" xmlns="http://www.w3.org/2000/svg"><path d="M0 20C0 8.954 8.954 0 20 0s20 8.954 20 20-8.954 20-20 20S0 31.046 0 20Z" fill="#fff"/><path d="M21.929 21.929C20.357 23.55 20.243 25.57 20.107 30c4.129 0 6.979-.014 8.45-1.443C29.986 27.086 30 24.1 30 20.107c-4.429.143-6.45.25-8.071 1.822ZM10 20.107c0 3.993.014 6.979 1.443 8.45C12.914 29.986 15.764 30 19.893 30c-.143-4.429-.25-6.45-1.822-8.071-1.621-1.572-3.642-1.686-8.071-1.822ZM19.893 10c-4.122 0-6.979.014-8.45 1.443C10.014 12.914 10 15.9 10 19.893c4.429-.143 6.45-.25 8.071-1.822 1.572-1.621 1.686-3.642 1.822-8.071Zm2.036 8.071C20.357 16.45 20.243 14.43 20.107 10c4.129 0 6.979.014 8.45 1.443C29.986 12.914 30 15.9 30 19.893c-4.429-.143-6.45-.25-8.071-1.822Z" fill="#2C3036"/><path d="M30 20.107v-.214c-4.429-.143-6.45-.25-8.071-1.822-1.572-1.621-1.686-3.642-1.822-8.071h-.214c-.143 4.429-.25 6.45-1.822 8.071-1.621 1.572-3.642 1.686-8.071 1.822v.214c4.429.143 6.45.25 8.071 1.822 1.572 1.621 1.686 3.642 1.822 8.071h.214c.143-4.429.25-6.45 1.822-8.071 1.621-1.572 3.642-1.686 8.071-1.822Z" fill="#fff"/></svg>