<svg width="164" height="50" viewBox="0 0 164 50" fill="none" xmlns="http://www.w3.org/2000/svg">
<path d="M163 44.3068C163 46.9012 160.9 49 158.3 49H5.7052C3.1072 49 1 46.9012 1 44.3068V5.6968C1 3.1072 3.1072 1 5.7052 1H158.297C160.9 1 162.999 3.1072 162.999 5.6968L163 44.3068Z" stroke="#222" stroke-width="1.22532" stroke-miterlimit="10"/>
<path d="M37.8004 24.1469C37.7656 20.2805 40.9672 18.3977 41.1136 18.3101C39.3004 15.6665 36.49 15.3053 35.5024 15.2765C33.142 15.0281 30.8524 16.6889 29.65 16.6889C28.4236 16.6889 26.572 15.3005 24.5764 15.3413C22.0084 15.3809 19.606 16.8677 18.2884 19.1765C15.5692 23.8829 17.5972 30.8021 20.2024 34.6073C21.5056 36.4709 23.0284 38.5517 25.0216 38.4785C26.9716 38.3981 27.7 37.2353 30.0532 37.2353C32.3848 37.2353 33.0688 38.4785 35.1016 38.4317C37.1944 38.3981 38.512 36.5597 39.7696 34.6793C41.2756 32.5433 41.8804 30.4397 41.9044 30.3317C41.8552 30.3161 37.84 28.7837 37.8004 24.1469Z" fill="#222"/>
<path d="M33.9604 12.7745C35.0092 11.4629 35.7268 9.67848 35.5276 7.86768C34.0096 7.93488 32.1112 8.91768 31.018 10.2005C30.0508 11.3309 29.1868 13.1837 29.41 14.9261C31.1152 15.0521 32.866 14.0657 33.9604 12.7745Z" fill="#222"/>
<path d="M66.022 38.2118H63.2968L61.804 33.521H56.6152L55.1932 38.2118H52.54L57.6808 22.2422H60.856L66.022 38.2118ZM61.3528 31.553L60.0028 27.383C59.86 26.957 59.5924 25.9538 59.1976 24.3734H59.1496C58.9924 25.0526 58.7392 26.0558 58.3912 27.383L57.0652 31.553H61.3528Z" fill="#222"/>
<path d="M79.2408 32.3129C79.2408 34.2713 78.7128 35.8193 77.6532 36.9557C76.7064 37.9672 75.5292 38.4725 74.124 38.4725C72.6072 38.4725 71.5176 37.9277 70.854 36.8381H70.8072V42.904H68.2476V30.4877C68.2476 29.2565 68.2152 27.9928 68.1528 26.6968H70.404L70.5456 28.522H70.5936C71.4468 27.1468 72.7404 26.4604 74.478 26.4604C75.8364 26.4604 76.9704 26.9969 77.8776 28.0709C78.7872 29.1461 79.2408 30.5597 79.2408 32.3129ZM76.6344 32.4065C76.6344 31.2857 76.3824 30.3616 75.876 29.6344C75.3228 28.876 74.58 28.4969 73.65 28.4969C73.0176 28.4969 72.4452 28.7081 71.9316 29.1245C71.418 29.5445 71.082 30.0928 70.9236 30.772C70.8456 31.0889 70.806 31.348 70.806 31.552V33.4721C70.806 34.3096 71.0616 35.0164 71.5752 35.5936C72.0888 36.1708 72.756 36.4589 73.578 36.4589C74.5416 36.4589 75.2928 36.0869 75.8292 35.3453C76.3668 34.6025 76.6344 33.6233 76.6344 32.4065Z" fill="#222"/>
<path d="M92.4855 32.3126C92.4855 34.271 91.9563 35.819 90.8967 36.9554C89.9499 37.967 88.7727 38.4722 87.3675 38.4722C85.8507 38.4722 84.7611 37.9274 84.0987 36.8378H84.0519V42.9038H81.4923V30.4874C81.4923 29.2562 81.4599 27.9926 81.3975 26.6966H83.6487L83.7903 28.5218H83.8383C84.6903 27.1466 85.9839 26.4602 87.7227 26.4602C89.0799 26.4602 90.2139 26.9966 91.1235 28.0706C92.0307 29.1458 92.4855 30.5594 92.4855 32.3126ZM89.8791 32.4062C89.8791 31.2854 89.6259 30.3614 89.1195 29.6342C88.5663 28.8758 87.8259 28.4966 86.8935 28.4966C86.2611 28.4966 85.6887 28.7078 85.1751 29.1242C84.6615 29.5442 84.3279 30.0926 84.1683 30.7718C84.0915 31.0886 84.0507 31.3478 84.0507 31.5518V33.4718C84.0507 34.3094 84.3063 35.0162 84.8187 35.5934C85.3323 36.1694 85.9995 36.4586 86.8227 36.4586C87.7863 36.4586 88.5363 36.0866 89.0727 35.345C89.6103 34.6022 89.8791 33.623 89.8791 32.4062Z" fill="#222"/>
<path d="M107.293 33.7335C107.293 35.0919 106.822 36.1971 105.875 37.0503C104.835 37.9827 103.386 38.4483 101.525 38.4483C99.8066 38.4483 98.429 38.1171 97.3862 37.4535L97.979 35.3211C99.1022 36.0003 100.335 36.3411 101.677 36.3411C102.641 36.3411 103.391 36.1227 103.93 35.6883C104.466 35.2539 104.734 34.6707 104.734 33.9435C104.734 33.2955 104.513 32.7495 104.07 32.3067C103.63 31.8639 102.894 31.4523 101.867 31.0719C99.071 30.0291 97.6742 28.5015 97.6742 26.4927C97.6742 25.1799 98.1638 24.1047 99.1442 23.2659C100.121 22.4271 101.424 22.0083 103.054 22.0083C104.507 22.0083 105.714 22.2603 106.678 22.7667L106.038 24.8511C105.138 24.3627 104.121 24.1167 102.982 24.1167C102.082 24.1167 101.379 24.3387 100.875 24.7803C100.449 25.1763 100.235 25.6563 100.235 26.2263C100.235 26.8575 100.479 27.3795 100.968 27.7899C101.394 28.1691 102.168 28.5795 103.291 29.0223C104.665 29.5755 105.675 30.2223 106.324 30.9639C106.971 31.7043 107.293 32.6283 107.293 33.7335Z" fill="#222"/>
<path d="M115.753 28.6166H112.933V34.2074C112.933 35.6294 113.429 36.3398 114.425 36.3398C114.883 36.3398 115.262 36.3002 115.562 36.221L115.633 38.1638C115.129 38.3522 114.465 38.447 113.643 38.447C112.633 38.447 111.843 38.1386 111.273 37.523C110.705 36.9062 110.42 35.8718 110.42 34.4186V28.6142H108.74V26.6942H110.42V24.5846L112.933 23.8274V26.6942H115.753V28.6166Z" fill="#222"/>
<path d="M128.476 32.3594C128.476 34.1294 127.97 35.5826 126.959 36.719C125.9 37.889 124.493 38.4722 122.74 38.4722C121.05 38.4722 119.705 37.9118 118.702 36.791C117.699 35.6702 117.197 34.2554 117.197 32.5502C117.197 30.7658 117.713 29.3042 118.749 28.1678C119.782 27.0302 121.176 26.4614 122.93 26.4614C124.619 26.4614 125.979 27.0218 127.005 28.1438C127.986 29.2322 128.476 30.6374 128.476 32.3594ZM125.822 32.4422C125.822 31.3802 125.595 30.4694 125.135 29.7098C124.599 28.7906 123.832 28.3322 122.838 28.3322C121.81 28.3322 121.029 28.7918 120.492 29.7098C120.033 30.4706 119.806 31.3958 119.806 32.4902C119.806 33.5522 120.033 34.463 120.492 35.2214C121.046 36.1406 121.818 36.599 122.816 36.599C123.792 36.599 124.559 36.131 125.112 35.1974C125.584 34.4234 125.822 33.503 125.822 32.4422Z" fill="#222"/>
<path d="M136.792 28.9466C136.539 28.8998 136.269 28.8758 135.986 28.8758C135.086 28.8758 134.39 29.2154 133.9 29.8958C133.474 30.4958 133.261 31.2542 133.261 32.1698V38.2118H130.703L130.727 30.323C130.727 28.9958 130.695 27.7874 130.631 26.6978H132.86L132.953 28.901H133.024C133.294 28.1438 133.72 27.5342 134.303 27.077C134.873 26.6654 135.489 26.4602 136.153 26.4602C136.389 26.4602 136.603 26.477 136.792 26.507V28.9466Z" fill="#222"/>
<path d="M148.234 31.9095C148.234 32.3679 148.204 32.7543 148.14 33.0699H140.465C140.495 34.2075 140.866 35.0775 141.579 35.6775C142.226 36.2139 143.062 36.4827 144.089 36.4827C145.226 36.4827 146.262 36.3015 147.195 35.9379L147.596 37.7139C146.506 38.1891 145.22 38.4255 143.735 38.4255C141.95 38.4255 140.548 37.8999 139.528 36.8499C138.51 35.7999 138 34.3899 138 32.6211C138 30.8847 138.474 29.4387 139.424 28.2855C140.417 27.0543 141.76 26.4387 143.45 26.4387C145.109 26.4387 146.366 27.0543 147.219 28.2855C147.894 29.2635 148.234 30.4731 148.234 31.9095ZM145.794 31.2459C145.811 30.4875 145.644 29.8323 145.298 29.2791C144.855 28.5675 144.174 28.2123 143.259 28.2123C142.422 28.2123 141.742 28.5591 141.222 29.2551C140.796 29.8083 140.543 30.4719 140.465 31.2447H145.794V31.2459Z" fill="#222"/>
<path d="M53.7556 9.13473C54.028 8.97153 54.3352 8.83473 54.6808 8.72193C55.0252 8.60913 55.4308 8.55273 55.8976 8.55273C56.65 8.55273 57.2428 8.73153 57.6772 9.08793C58.1116 9.44433 58.3288 9.92553 58.3288 10.5315C58.3288 11.0127 58.1836 11.4159 57.8932 11.7423C57.6028 12.0687 57.2308 12.2859 56.7808 12.3939V12.4287C57.0292 12.4683 57.2644 12.5355 57.4852 12.6327C57.7072 12.7299 57.9016 12.8595 58.0672 13.0227C58.234 13.1859 58.366 13.3755 58.4632 13.5939C58.5592 13.8111 58.6084 14.0511 58.6084 14.3163C58.6084 14.7507 58.5208 15.1155 58.3456 15.4107C58.1704 15.7059 57.9424 15.9459 57.6592 16.1331C57.3772 16.3191 57.0604 16.4535 56.7112 16.5339C56.362 16.6143 56.0128 16.6563 55.6636 16.6563C55.2904 16.6563 54.922 16.6167 54.5572 16.5399C54.1924 16.4631 53.8552 16.3347 53.5444 16.1559L53.8588 15.1899C54.0604 15.2907 54.3208 15.3879 54.6388 15.4815C54.9568 15.5751 55.2784 15.6207 55.6048 15.6207C56.14 15.6207 56.554 15.5007 56.8444 15.2607C57.1348 15.0195 57.2812 14.6979 57.2812 14.2947C57.2812 14.0223 57.2224 13.8003 57.106 13.6251C56.9884 13.4499 56.8372 13.3131 56.6512 13.2111C56.4676 13.1079 56.26 13.0383 56.032 12.9999C55.8028 12.9615 55.576 12.9411 55.3516 12.9411H54.8272V11.9871H55.3516C55.5916 11.9871 55.8148 11.9571 56.0212 11.8935C56.2264 11.8323 56.4052 11.7447 56.5564 11.6319C56.7076 11.5191 56.8264 11.3847 56.9116 11.2299C56.9956 11.0751 57.0388 10.8999 57.0388 10.7055C57.0388 10.3563 56.914 10.0827 56.6656 9.88473C56.4172 9.68673 56.0836 9.58713 55.6648 9.58713C55.378 9.58713 55.09 9.63393 54.8032 9.72633C54.5164 9.81993 54.2596 9.92073 54.034 10.0287L53.7556 9.13473Z" fill="#222"/>
<path d="M63.7529 16.5266L63.6605 15.875H63.6257C63.2465 16.3946 62.6957 16.655 61.9733 16.655C61.7165 16.655 61.4849 16.6118 61.2749 16.5266C61.0649 16.4414 60.8825 16.325 60.7277 16.1774C60.5717 16.0298 60.4529 15.8558 60.3665 15.653C60.2813 15.4514 60.2393 15.2294 60.2393 14.9894C60.2393 14.2838 60.5261 13.7534 61.1009 13.4006C61.6757 13.0478 62.4893 12.8714 63.5453 12.8714V12.767C63.5453 12.0218 63.1541 11.6498 62.3717 11.6498C61.8137 11.6498 61.3217 11.7902 60.8969 12.0686L60.6413 11.243C61.1609 10.9178 61.8077 10.7546 62.5817 10.7546C64.0613 10.7546 64.8017 11.5346 64.8017 13.0946V15.1778C64.8017 15.7598 64.8293 16.2098 64.8833 16.5278H63.7529V16.5266ZM63.5789 13.7102C62.8769 13.7102 62.3537 13.799 62.0105 13.9778C61.6673 14.1566 61.4957 14.4482 61.4957 14.8514C61.4957 15.1466 61.5761 15.3674 61.7381 15.515C61.9001 15.6626 62.1053 15.7358 62.3525 15.7358C62.5145 15.7358 62.6681 15.707 62.8157 15.6482C62.9621 15.5906 63.0905 15.5102 63.2021 15.4094C63.3149 15.3086 63.4049 15.1862 63.4757 15.0422C63.5453 14.8982 63.5789 14.7458 63.5789 14.5826V13.7102Z" fill="#222"/>
<path d="M70.866 10.8699V11.9055H68.5152V16.5267H67.2588V10.8699H70.866Z" fill="#222"/>
<path d="M78.0586 13.6274C78.0586 14.0774 77.9974 14.489 77.8738 14.861C77.749 15.2342 77.5762 15.5522 77.3554 15.815C77.1346 16.079 76.8706 16.2854 76.5634 16.4318C76.2562 16.5782 75.919 16.6538 75.5458 16.6538C74.8006 16.6538 74.2642 16.3862 73.9378 15.851H73.9138V18.8306H72.6574V12.7322C72.6574 12.4298 72.6526 12.125 72.6454 11.8178C72.6394 11.5118 72.6274 11.1962 72.6118 10.8698H73.7182L73.789 11.7662H73.813C74.2306 11.0918 74.8678 10.7534 75.721 10.7534C76.0534 10.7534 76.363 10.823 76.6462 10.9622C76.9294 11.1026 77.1754 11.2982 77.3842 11.5502C77.5954 11.8022 77.7586 12.1046 77.8786 12.4586C77.9998 12.8114 78.0586 13.2014 78.0586 13.6274ZM76.7782 13.6742C76.7782 13.3946 76.7458 13.1366 76.6798 12.9002C76.6138 12.6638 76.5154 12.4622 76.3894 12.2954C76.261 12.1286 76.1062 11.9966 75.9226 11.8994C75.7402 11.8022 75.5362 11.7542 75.3106 11.7542C75.133 11.7542 74.959 11.7938 74.7874 11.8706C74.6158 11.9474 74.4658 12.053 74.3398 12.185C74.2114 12.317 74.1082 12.4766 74.0302 12.6626C73.9534 12.8486 73.9126 13.0466 73.9126 13.2566V14.1998C73.9126 14.4086 73.945 14.603 74.0134 14.7818C74.0794 14.9606 74.1706 15.1154 74.2918 15.2474C74.4118 15.3794 74.5546 15.4826 74.7226 15.5558C74.8894 15.6302 75.0718 15.6662 75.2734 15.6662C75.7474 15.6662 76.117 15.4862 76.3798 15.125C76.6474 14.7626 76.7782 14.2802 76.7782 13.6742Z" fill="#222"/>
<path d="M84.8127 10.8699L83.3799 14.7927C83.0403 15.7239 82.7067 16.4859 82.3863 17.0799C82.0623 17.6739 81.7563 18.1059 81.4611 18.3783C81.0279 18.7659 80.5659 19.0035 80.0763 19.0875L79.7739 18.0291C80.0991 17.9439 80.4087 17.7771 80.7039 17.5287C80.9991 17.2803 81.2355 16.9707 81.4143 16.5975C81.4779 16.4739 81.5079 16.3887 81.5079 16.3419C81.5079 16.2951 81.4839 16.2063 81.4371 16.0743L79.3887 10.8711H80.7735L81.8451 14.0259C81.8991 14.1735 81.9531 14.3403 82.0071 14.5263C82.0635 14.7123 82.1199 14.9187 82.1823 15.1431H82.2063C82.2435 15.0183 82.2879 14.8623 82.3323 14.6715C82.3791 14.4819 82.4427 14.2623 82.5195 14.0139L83.4735 10.8711H84.8127V10.8699Z" fill="#222"/>
<path d="M86.9901 13.2208H87.5709C87.9969 13.2208 88.3281 13.144 88.5597 12.988C88.7913 12.832 88.9089 12.6424 88.9089 12.4168C88.9089 12.184 88.8105 11.998 88.6113 11.8588C88.4145 11.7196 88.1397 11.6488 87.7905 11.6488C87.5649 11.6488 87.3381 11.686 87.1113 11.7592C86.8821 11.8336 86.6709 11.9248 86.4765 12.0328L86.1513 11.218C86.4765 11.0404 86.8005 10.918 87.1245 10.852C87.4461 10.786 87.7689 10.7524 88.0953 10.7524C88.3533 10.7524 88.6113 10.7776 88.8705 10.828C89.1285 10.8784 89.3601 10.9636 89.5617 11.0836C89.7633 11.2036 89.9301 11.3608 90.0561 11.5552C90.1845 11.7496 90.2481 11.9896 90.2481 12.2776C90.2481 12.4564 90.2133 12.6136 90.1425 12.7492C90.0741 12.8848 89.9805 13.0048 89.8641 13.1092C89.7489 13.2136 89.6181 13.3 89.4753 13.3648C89.3325 13.4308 89.1849 13.48 89.0397 13.5112V13.546C89.2245 13.57 89.4057 13.6168 89.5809 13.6864C89.7549 13.756 89.9109 13.8472 90.0525 13.96C90.1905 14.0728 90.3033 14.2084 90.3897 14.3668C90.4737 14.5264 90.5157 14.7064 90.5157 14.908C90.5157 15.2416 90.4365 15.5212 90.2721 15.7456C90.1101 15.9712 89.9013 16.1488 89.6481 16.2808C89.3973 16.4128 89.1189 16.5076 88.8165 16.5664C88.5141 16.624 88.2189 16.654 87.9333 16.654C87.5841 16.654 87.2373 16.6168 86.8977 16.5436C86.5557 16.4692 86.2485 16.3552 85.9761 16.2004L86.3037 15.3736C86.5053 15.4828 86.7345 15.574 86.9949 15.6472C87.2553 15.7204 87.5205 15.7576 87.7917 15.7576C88.2177 15.7576 88.5465 15.6748 88.7757 15.508C89.0025 15.3412 89.1177 15.1336 89.1177 14.8852C89.1177 14.722 89.0805 14.5852 89.0025 14.4724C88.9245 14.3596 88.8153 14.2684 88.6773 14.1988C88.5369 14.1292 88.3749 14.08 88.1877 14.0536C88.0029 14.026 87.7989 14.0128 87.5829 14.0128H86.9901V13.2208Z" fill="#222"/>
<path d="M93.7047 10.8698V12.8714C93.7047 13.3298 93.6975 13.7414 93.6807 14.105C93.6639 14.4698 93.6459 14.8538 93.6219 15.257L93.6459 15.2798C93.7935 14.9846 93.9387 14.6966 94.0815 14.4122C94.2267 14.129 94.3719 13.8398 94.5195 13.5446L95.9163 10.8674H97.5447V16.5242H96.3567V14.5226C96.3567 14.1038 96.3687 13.685 96.3867 13.2662C96.4059 12.8462 96.4263 12.4238 96.4503 11.9966H96.3915C96.2607 12.3458 96.1287 12.6482 95.9955 12.905C95.8647 13.1606 95.7327 13.4246 95.6019 13.697C95.3607 14.1626 95.1219 14.6282 94.8843 15.0938C94.6479 15.5594 94.3971 16.037 94.1343 16.5254H92.5059V10.8698H93.7047Z" fill="#222"/>
<path d="M104.18 10.8699V11.9055H102.457V16.5267H101.223V11.9055H99.5122V10.8699H104.18Z" fill="#222"/>
<path d="M110.593 13.4307C110.593 13.5387 110.588 13.6419 110.581 13.7391C110.574 13.8363 110.562 13.9239 110.546 14.0007H106.775C106.791 14.5359 106.959 14.9499 107.281 15.2403C107.603 15.5307 108.029 15.6771 108.555 15.6771C109.106 15.6771 109.615 15.5883 110.081 15.4095L110.277 16.2831C109.741 16.5159 109.11 16.6323 108.379 16.6323C107.939 16.6323 107.543 16.5639 107.193 16.4283C106.844 16.2927 106.549 16.1007 106.308 15.8523C106.069 15.6039 105.883 15.3051 105.755 14.9559C105.629 14.6067 105.565 14.2155 105.565 13.7811C105.565 13.3467 105.629 12.9447 105.755 12.5763C105.883 12.2079 106.064 11.8875 106.296 11.6163C106.53 11.3439 106.812 11.1315 107.139 10.9755C107.469 10.8207 107.838 10.7427 108.241 10.7427C108.597 10.7427 108.92 10.8063 109.214 10.9347C109.505 11.0619 109.753 11.2443 109.957 11.4819C110.163 11.7183 110.321 12.0027 110.429 12.3315C110.539 12.6603 110.593 13.0263 110.593 13.4307ZM109.393 13.1043C109.393 12.6615 109.287 12.3027 109.074 12.0279C108.86 11.7531 108.551 11.6151 108.149 11.6151C107.783 11.6151 107.474 11.7543 107.219 12.0339C106.963 12.3135 106.815 12.6699 106.776 13.1055H109.393V13.1043Z" fill="#222"/>
<path d="M115.659 10.9167C115.884 10.8783 116.17 10.8471 116.519 10.8231C116.868 10.7991 117.225 10.7883 117.591 10.7883C117.822 10.7883 118.085 10.8027 118.375 10.8291C118.666 10.8555 118.945 10.9179 119.207 11.0151C119.472 11.1123 119.692 11.2575 119.871 11.4519C120.049 11.6463 120.141 11.9091 120.141 12.2427C120.141 12.4143 120.108 12.5679 120.047 12.7023C119.983 12.8379 119.902 12.9567 119.796 13.0575C119.691 13.1583 119.571 13.2423 119.435 13.3071C119.299 13.3731 119.159 13.4223 119.01 13.4523L119.022 13.4871C119.433 13.5567 119.767 13.7043 120.023 13.9299C120.279 14.1555 120.407 14.4651 120.407 14.8611C120.407 15.2571 120.297 15.5715 120.082 15.8043C119.863 16.0371 119.597 16.2123 119.278 16.3287C118.959 16.4451 118.624 16.5195 118.27 16.5507C117.918 16.5807 117.601 16.5975 117.323 16.5975C117.011 16.5975 116.706 16.5903 116.409 16.5735C116.109 16.5579 115.86 16.5423 115.659 16.5267V10.9167ZM116.868 13.1751H117.508C117.702 13.1751 117.887 13.1619 118.061 13.1343C118.236 13.1079 118.389 13.0647 118.521 13.0071C118.654 12.9483 118.755 12.8715 118.83 12.7743C118.903 12.6771 118.941 12.5595 118.941 12.4191C118.941 12.1635 118.835 11.9751 118.619 11.8551C118.405 11.7351 118.071 11.6751 117.613 11.6751C117.483 11.6751 117.367 11.6787 117.269 11.6871C117.173 11.6943 117.04 11.7063 116.868 11.7219V13.1751ZM116.868 15.6771C117.023 15.6927 117.154 15.7035 117.257 15.7119C117.363 15.7203 117.484 15.7239 117.625 15.7239C117.797 15.7239 117.97 15.7131 118.149 15.6891C118.326 15.6663 118.491 15.6219 118.638 15.5559C118.786 15.4911 118.903 15.4023 118.992 15.2895C119.081 15.1779 119.128 15.0291 119.128 14.8443C119.128 14.5203 118.983 14.2971 118.697 14.1735C118.409 14.0499 118.023 13.9887 117.532 13.9887H116.868V15.6771Z" fill="#222"/>
</svg>
