<svg width="164" height="50" viewBox="0 0 164 50" fill="none" xmlns="http://www.w3.org/2000/svg">
<path d="M162.8 44.3068C162.8 46.9012 160.7 49 158.099 49H5.505C2.9082 49 0.799805 46.9012 0.799805 44.3068V5.6968C0.799805 3.1072 2.9082 1 5.505 1H158.097C160.7 1 162.799 3.1072 162.799 5.6968L162.8 44.3068Z" stroke="#222" stroke-width="1.22532" stroke-miterlimit="10"/>
<path d="M121.433 32.2634C120.798 32.2634 120.217 32.147 119.695 31.913C119.173 31.679 118.731 31.319 118.375 30.8354H118.268C118.341 31.403 118.375 31.943 118.375 32.453V36.4586H116.901V22.3526H118.099L118.303 23.6846H118.375C118.754 23.1518 119.196 22.7654 119.7 22.529C120.201 22.2914 120.78 22.1726 121.433 22.1726C122.721 22.1726 123.719 22.6154 124.419 23.4974C125.123 24.3782 125.473 25.6178 125.473 27.209C125.473 28.8086 125.115 30.0506 124.403 30.9362C123.689 31.8218 122.7 32.2634 121.433 32.2634ZM121.22 23.4254C120.223 23.4254 119.503 23.7002 119.06 24.251C118.617 24.8018 118.388 25.6778 118.376 26.8802V27.2066C118.376 28.577 118.603 29.5538 119.06 30.1442C119.517 30.7322 120.248 31.0262 121.253 31.0262C122.094 31.0262 122.755 30.6866 123.231 30.0062C123.707 29.3246 123.944 28.385 123.944 27.1886C123.944 25.9754 123.708 25.0442 123.231 24.395C122.755 23.7506 122.083 23.4254 121.22 23.4254Z" fill="#222"/>
<path d="M128.885 32.0846H127.414V18.2666H128.885V32.0846Z" fill="#222"/>
<path d="M137.365 32.0847L137.071 30.7011H136.998C136.513 31.3119 136.029 31.7247 135.547 31.9383C135.065 32.1567 134.461 32.2635 133.741 32.2635C132.773 32.2635 132.017 32.0151 131.468 31.5183C130.921 31.0203 130.647 30.3147 130.647 29.3955C130.647 27.4299 132.221 26.3991 135.363 26.3043L137.016 26.2503V25.6479C137.016 24.8835 136.851 24.3195 136.524 23.9547C136.195 23.5911 135.668 23.4087 134.948 23.4087C134.137 23.4087 133.22 23.6571 132.193 24.1539L131.741 23.0271C132.221 22.7667 132.746 22.5615 133.316 22.4139C133.889 22.2663 134.46 22.1919 135.037 22.1919C136.197 22.1919 137.057 22.4487 137.616 22.9647C138.176 23.4795 138.456 24.3051 138.456 25.4427V32.0847H137.365ZM134.034 31.0467C134.951 31.0467 135.671 30.7959 136.195 30.2931C136.719 29.7891 136.981 29.0835 136.981 28.1787V27.2991L135.507 27.3603C134.333 27.4035 133.489 27.5835 132.971 27.9075C132.452 28.2315 132.193 28.7319 132.193 29.4135C132.193 29.9463 132.355 30.3507 132.678 30.6315C133.001 30.9087 133.451 31.0467 134.034 31.0467Z" fill="#222"/>
<path d="M139.312 22.3525H140.893L143.024 27.9025C143.491 29.1709 143.781 30.0853 143.896 30.6469H143.967C144.044 30.3445 144.206 29.8285 144.451 29.0977C144.697 28.3645 145.5 26.1181 146.863 22.3525H148.443L144.26 33.4357C143.845 34.5301 143.361 35.3089 142.807 35.7673C142.254 36.2269 141.573 36.4561 140.768 36.4561C140.318 36.4561 139.874 36.4045 139.437 36.3049V35.1241C139.761 35.1949 140.127 35.2297 140.529 35.2297C141.542 35.2297 142.262 34.6633 142.695 33.5245L143.239 32.1397L139.312 22.3525Z" fill="#222"/>
<path d="M94.1187 23.255C94.5867 23.6426 95.5635 24.4562 95.5635 26.0054C95.5635 27.5102 94.7079 28.2254 93.8535 28.8962C93.5883 29.1602 93.2811 29.447 93.2811 29.8946C93.2811 30.341 93.5883 30.5858 93.8103 30.7694L94.5447 31.3394C95.4423 32.0918 96.2535 32.7842 96.2535 34.1906C96.2535 36.1046 94.4019 38.0378 90.9003 38.0378C87.9483 38.0378 86.5239 36.6326 86.5239 35.1266C86.5239 34.3934 86.8887 33.3542 88.0899 32.6414C89.3523 31.8674 91.0635 31.7666 91.9803 31.7042C91.6935 31.3394 91.3671 30.9518 91.3671 30.3242C91.3671 29.9774 91.4703 29.7734 91.5723 29.5286C91.3467 29.549 91.1235 29.567 90.9195 29.567C88.7619 29.567 87.5415 27.9602 87.5415 26.3726C87.5415 25.4366 87.9687 24.3974 88.8423 23.6438C90.0063 22.6874 91.3887 22.5242 92.4891 22.5242H96.6819L95.3787 23.255H94.1187ZM92.6727 32.2982C92.5107 32.2754 92.4075 32.2754 92.2059 32.2754C92.0223 32.2754 90.9207 32.315 90.0675 32.603C89.6199 32.765 88.3155 33.2522 88.3155 34.6982C88.3155 36.143 89.7219 37.1834 91.8987 37.1834C93.8535 37.1834 94.8927 36.2438 94.8927 34.9826C94.8927 33.9446 94.2195 33.3962 92.6727 32.2982ZM93.2631 28.427C93.7299 27.959 93.7719 27.3074 93.7719 26.9402C93.7719 25.475 92.8959 23.195 91.2063 23.195C90.6771 23.195 90.1059 23.4602 89.7807 23.8682C89.4351 24.2954 89.3331 24.8438 89.3331 25.373C89.3331 26.7398 90.1263 28.9982 91.8783 28.9982C92.3871 28.997 92.9355 28.7534 93.2631 28.427Z" fill="#222"/>
<path d="M81.299 31.9719C78.0686 31.9719 76.3394 29.4507 76.3394 27.1743C76.3394 24.5103 78.5138 22.2351 81.6062 22.2351C84.593 22.2351 86.4638 24.5715 86.4638 27.0315C86.4638 29.4291 84.6146 31.9719 81.299 31.9719ZM83.8405 30.3255C84.3289 29.6727 84.4514 28.8603 84.4514 28.0671C84.4514 26.2779 83.597 22.8627 81.077 22.8627C80.4062 22.8627 79.7354 23.1279 79.2482 23.5539C78.455 24.2655 78.3122 25.1595 78.3122 26.0355C78.3122 28.0443 79.3082 31.3587 81.7694 31.3587C82.5602 31.3599 83.3737 30.9747 83.8405 30.3255Z" fill="#222"/>
<path d="M70.2806 31.9719C67.049 31.9719 65.3198 29.4507 65.3198 27.1743C65.3198 24.5103 67.4954 22.2351 70.5854 22.2351C73.5734 22.2351 75.4454 24.5715 75.4454 27.0315C75.4454 29.4291 73.595 31.9719 70.2806 31.9719ZM72.8222 30.3255C73.3118 29.6727 73.4342 28.8603 73.4342 28.0671C73.4342 26.2779 72.5798 22.8627 70.0598 22.8627C69.3878 22.8627 68.717 23.1279 68.231 23.5539C67.4378 24.2655 67.2962 25.1595 67.2962 26.0355C67.2962 28.0443 68.291 31.3587 70.7522 31.3587C71.5418 31.3599 72.3554 30.9747 72.8222 30.3255Z" fill="#222"/>
<path d="M63.768 31.6527L60.8448 32.3271C59.6592 32.5119 58.5972 32.6751 57.4728 32.6751C51.8304 32.6751 49.686 28.5243 49.686 25.2759C49.686 21.3111 52.7304 17.6343 57.9432 17.6343C59.0472 17.6343 60.1104 17.7975 61.0692 18.0615C62.6016 18.4923 63.3168 19.0227 63.7668 19.3299L62.07 20.9439L61.3548 21.1071L61.866 20.2887C61.1724 19.6143 59.9028 18.3675 57.492 18.3675C54.2628 18.3675 51.8292 20.8215 51.8292 24.3975C51.8292 28.2387 54.6108 31.8555 59.064 31.8555C60.3744 31.8555 61.0464 31.5903 61.6608 31.3455V28.0539L58.5744 28.2183L60.2088 27.3399H64.542L64.0116 27.8511C63.8664 27.9747 63.8472 28.0167 63.8064 28.1775C63.7836 28.3599 63.7656 28.9539 63.7656 29.1579V31.6527H63.768Z" fill="#222"/>
<path d="M100.576 31.0646C99.9023 31.0022 99.7619 30.881 99.7619 30.0842V29.8586V18.5162C99.7667 18.4718 99.7691 18.4274 99.7715 18.3854C99.8555 17.669 100.057 17.549 100.693 17.1782H97.7687L96.2363 17.9138H97.7999V17.9246L97.7975 17.9162V29.8586V30.5342C97.7975 30.941 97.7183 31.0034 97.2467 31.6154H100.865L101.622 31.1666C101.274 31.1246 100.925 31.1042 100.576 31.0646Z" fill="#222"/>
<path d="M108.894 31.2518C108.671 31.3742 108.449 31.5158 108.225 31.6178C107.554 31.9214 106.865 32.003 106.254 32.003C105.606 32.003 104.59 31.961 103.554 31.211C102.114 30.1958 101.483 28.4486 101.483 26.9282C101.483 23.7842 104.043 22.241 106.134 22.241C106.864 22.241 107.614 22.4222 108.223 22.8098C109.24 23.4782 109.501 24.3506 109.644 24.8186L104.875 26.7458L103.312 26.8694C103.817 29.447 105.564 30.947 107.491 30.947C108.526 30.947 109.278 30.581 109.967 30.239L108.894 31.2518ZM106.987 25.2038C107.371 25.061 107.575 24.9386 107.575 24.6554C107.575 23.8442 106.662 22.9106 105.565 22.9106C104.751 22.9106 103.233 23.5394 103.233 25.7318C103.233 26.075 103.27 26.441 103.294 26.807L106.987 25.2038Z" fill="#222"/>
<path d="M110.853 22.3792V23.7172H110.691V22.3792H110.249V22.24H111.296V22.3792H110.853Z" fill="#222"/>
<path d="M112.679 23.7184V22.3672H112.67L112.257 23.7184H112.131L111.713 22.3672H111.709V23.7184H111.561V22.24H111.814L112.191 23.4352H112.196L112.567 22.24H112.825V23.7172H112.679V23.7184Z" fill="#222"/>
<path d="M15.6052 8.01392L31.78 24.0723L36.2152 19.6383L16.6084 8.31752C16.282 8.12672 15.9316 8.02352 15.6052 8.01392ZM14.2516 8.75912C14.1064 9.02072 14.0176 9.32672 14.0176 9.67112V40.8759C14.0176 41.1255 14.0704 41.3511 14.158 41.5515L30.7048 25.1211L14.2516 8.75912ZM37.5676 20.4063L32.8312 25.1223L37.5676 29.8131L43.3564 26.4987C44.1796 26.0235 44.2948 25.4199 44.2888 25.0983C44.2816 24.5691 43.9444 24.0723 43.3792 23.7675C42.8848 23.5023 39.2248 21.3699 37.5676 20.4063ZM31.7788 26.1723L15.4648 42.3459C15.736 42.3315 16.0312 42.2727 16.3048 42.1131C16.9432 41.7423 29.866 34.2711 29.866 34.2711L36.2368 30.6075L31.7788 26.1723Z" fill="#222"/>
<path d="M50.0936 9.01113C50.5184 8.75793 51.152 8.52393 51.9932 8.52393C53.3324 8.52393 54.1184 9.19353 54.1184 10.0887C54.1184 10.8483 53.6024 11.3559 52.8968 11.5263V11.5455C53.6564 11.6451 54.326 12.1695 54.326 12.9927C54.326 14.3499 52.9508 14.8191 51.8108 14.8191C51.1772 14.8191 50.4896 14.6835 49.9844 14.3943L50.2736 13.3359C50.5448 13.4811 51.1772 13.6983 51.7484 13.6983C52.4456 13.6983 52.8704 13.4091 52.8704 12.9027C52.8704 12.2247 52.1648 12.0879 51.596 12.0879H51.0176V11.0739H51.5876C52.2116 11.0739 52.682 10.7847 52.682 10.3047C52.682 9.90753 52.3472 9.63513 51.7592 9.63513C51.2888 9.63513 50.7644 9.82473 50.4212 9.99753L50.0936 9.01113Z" fill="#222"/>
<path d="M56.6341 13.1547L56.1997 14.7195H54.7705L56.6341 8.62354H58.4425L60.3337 14.7195H58.8505L58.3801 13.1547H56.6341ZM58.1809 12.1239L57.8005 10.8291C57.6925 10.4667 57.5833 10.0143 57.4933 9.65313H57.4753C57.3853 10.0155 57.2941 10.4775 57.1957 10.8291L56.8333 12.1239H58.1809Z" fill="#222"/>
<path d="M64.8375 8.62354V9.75274H62.5311V14.7195H61.1475V8.62354H64.8375Z" fill="#222"/>
<path d="M65.5703 8.70388C65.9951 8.63068 66.5927 8.57788 67.4339 8.57788C68.2835 8.57788 68.8895 8.74108 69.2975 9.06628C69.6863 9.37348 69.9491 9.87988 69.9491 10.4775C69.9491 11.0739 69.7499 11.5815 69.3887 11.9247C68.9183 12.3675 68.2211 12.5667 67.4075 12.5667C67.2263 12.5667 67.0631 12.5571 66.9371 12.5403V14.7195H65.5715V8.70388H65.5703ZM66.9359 11.4723C67.0535 11.4987 67.1987 11.5083 67.3967 11.5083C68.1299 11.5083 68.5823 11.1363 68.5823 10.5135C68.5823 9.95188 68.1935 9.61828 67.5059 9.61828C67.2263 9.61828 67.0355 9.64468 66.9359 9.67228V11.4723Z" fill="#222"/>
<path d="M71.7307 8.62354L72.6163 10.7667C72.7795 11.1999 72.9055 11.5623 73.0411 11.9343H73.0675C73.1491 11.6715 73.2487 11.2635 73.4023 10.7487L74.0623 8.62354H75.5095L74.3695 11.5815C73.9987 12.5307 73.6195 13.4535 73.1671 14.0139C72.7687 14.5107 72.2623 14.8191 71.5483 14.8191C71.2315 14.8191 71.0419 14.7831 70.8703 14.7195L70.9699 13.6155C71.0779 13.6419 71.2231 13.6611 71.4223 13.6611C71.8471 13.6611 72.1363 13.3719 72.2455 13.0911C72.2995 12.9915 72.2731 12.9099 72.2275 12.8103L70.1743 8.62354H71.7307Z" fill="#222"/>
<path d="M75.9276 9.01113C76.3524 8.75793 76.986 8.52393 77.8272 8.52393C79.1664 8.52393 79.9524 9.19353 79.9524 10.0887C79.9524 10.8483 79.4364 11.3559 78.7308 11.5263V11.5455C79.4904 11.6451 80.16 12.1695 80.16 12.9927C80.16 14.3499 78.7848 14.8191 77.6448 14.8191C77.0112 14.8191 76.3236 14.6835 75.8184 14.3943L76.1076 13.3359C76.3788 13.4811 77.0112 13.6983 77.5824 13.6983C78.2796 13.6983 78.7044 13.4091 78.7044 12.9027C78.7044 12.2247 77.9988 12.0879 77.43 12.0879H76.8516V11.0739H77.4216C78.0456 11.0739 78.516 10.7847 78.516 10.3047C78.516 9.90753 78.1812 9.63513 77.5932 9.63513C77.1228 9.63513 76.5984 9.82473 76.2552 9.99753L75.9276 9.01113Z" fill="#222"/>
<path d="M82.34 8.62354V10.4319C82.34 11.4087 82.322 12.3771 82.268 13.1919H82.304C82.6208 12.4767 83.0288 11.6715 83.3888 11.0199L84.7016 8.62354H86.1128V14.7195H84.8456V12.9195C84.8456 11.9787 84.8648 11.1459 84.9452 10.3503H84.9188C84.6392 11.0739 84.2492 11.8779 83.888 12.5211L82.6496 14.7195H81.0752V8.62354H82.34Z" fill="#222"/>
<path d="M88.4908 9.78033H86.854V8.62354H91.5388V9.78153H89.8744V14.7195H88.4908V9.78033Z" fill="#222"/>
<path d="M95.9001 12.1407H93.6561V13.5879H96.1617V14.7183H92.2725V8.62231H96.0357V9.75151H93.6561V11.0199H95.9001V12.1407Z" fill="#222"/>
<path d="M100.314 8.62354V10.9659H102.585V8.62354H103.96V14.7195H102.584V12.1683H100.312V14.7195H98.9287V8.62354H100.314Z" fill="#222"/>
<path d="M106.582 13.1547L106.148 14.7195H104.719L106.583 8.62354H108.392L110.282 14.7195H108.799L108.329 13.1547H106.582ZM108.128 12.1239L107.749 10.8303C107.64 10.4679 107.532 10.0155 107.442 9.65433H107.423C107.333 10.0167 107.243 10.4787 107.143 10.8303L106.781 12.1239H108.128Z" fill="#222"/>
</svg>
